<svg xmlns="http://www.w3.org/2000/svg" width="371" height="129" viewBox="0 0 371 129">
  <defs>
    <style>
      .cls-1 {
        fill-rule: evenodd;
      }
    </style>
  </defs>
  <path id="Emilia" class="cls-1" d="M74.085,22.257a7.179,7.179,0,0,0,1.739-4.748,6.462,6.462,0,0,0-4.481-6.42Q61.646,7.212,45.4,7.211a90.563,90.563,0,0,0-13.408,1.07,139.558,139.558,0,0,0-15.147,3.21,6.683,6.683,0,0,0-4.815-1.939q-6.688,0-6.687,7.958a56.9,56.9,0,0,0,.669,7.256,57.124,57.124,0,0,1,.669,7.256q0,9.228-1.337,28.555a6.917,6.917,0,0,0-1.271,4.079A7.485,7.485,0,0,0,4.8,67.931Q4.469,73.817,4.27,78.9t-0.2,9.362q0,21.467,6.42,27.418,5.884,5.483,26.615,5.483,20.93,0,27.217-1.27,5.683-1.138,5.684-6.755,0-6.954-7.088-6.954a26.191,26.191,0,0,0-3.879.434,26.053,26.053,0,0,1-3.945.435q-4.213,0-12.539.234t-12.472.234q-8.895,0-10.5-1.872-2.141-2.608-2.14-17.387,0-3.677.167-7.925t0.435-8.994l30.9-2.809,15.916-1.4q6.152-.735,6.152-6.821A6.533,6.533,0,0,0,69,55.293a6.982,6.982,0,0,0-4.949-1.872q-2.943,0-15.849,1.337l-29.29,2.809q1.136-16.25,1.137-25.545a53.371,53.371,0,0,0-.6-6.955A123.462,123.462,0,0,1,33.426,21.99a78.712,78.712,0,0,1,11.97-1A79.693,79.693,0,0,1,67.2,24.2a7.375,7.375,0,0,0,2.073.334,6.08,6.08,0,0,0,4.815-2.274h0ZM179.343,118.22a5.4,5.4,0,0,0,1.805-4.548q-2.943-26.815-4.815-38.318-1.94-16.383-2.741-18.791-4.08-12.037-15.247-12.037a26.56,26.56,0,0,0-11.636,2.441,23.848,23.848,0,0,0-8.761,7.323Q134,43.857,123.5,43.857q-4.749,0-11.5,5.784a40.161,40.161,0,0,0-10.232,12.94l-0.133-7.022a35.362,35.362,0,0,1,.334-4.079,35.308,35.308,0,0,0,.334-3.945,7.05,7.05,0,0,0-2.173-4.949,6.523,6.523,0,0,0-4.781-2.274q-6.821,0-6.821,15.18,0,3.611.635,10.7T89.8,76.826q0,4.012-.736,11.97t-0.736,11.97q0,17.187,7.557,17.186a6.851,6.851,0,0,0,4.782-1.872,6.02,6.02,0,0,0,2.04-4.614,34.336,34.336,0,0,0-.636-5.216,34.673,34.673,0,0,1-.635-5.618q0-3.744.736-11.569t0.735-11.836a40.555,40.555,0,0,0,3.411-4.213l7.891-8.827a33.422,33.422,0,0,1,9.5-6.955q2.005,3.947,2.006,11.034,0,8.092,1.638,23.907t1.639,23.907a6.692,6.692,0,0,0,1.839,4.848,6.784,6.784,0,0,0,9.429,0,6.7,6.7,0,0,0,1.839-4.848,151.743,151.743,0,0,0-1.271-17.454l-2.006-17.855q-0.4-6.285-.335-12.572,2.007-2.34,8.426-6.219,6.755-4.213,9.229-4.213,2.673,0,4.948,6.018a45.419,45.419,0,0,1,2.274,9.028l2.274,20.731q1.2,13.376,2.407,20.73,0.936,5.819,6.42,5.818A6.9,6.9,0,0,0,179.343,118.22Zm34.874-90.613a7.671,7.671,0,0,0,0-10.967,7.587,7.587,0,0,0-5.517-2.274,7.7,7.7,0,0,0-5.551,2.274,7.6,7.6,0,0,0,0,10.967,7.7,7.7,0,0,0,5.551,2.274A7.582,7.582,0,0,0,214.217,27.607ZM212.378,68.5q0.668-9.395.669-15.682a6.673,6.673,0,0,0-1.839-4.882,6.871,6.871,0,0,0-9.429,0,6.665,6.665,0,0,0-1.839,4.882q0,6.287-.669,15.682T198.6,84.182q0,4.012.234,12t0.234,12A6.577,6.577,0,0,0,200.909,113a6.915,6.915,0,0,0,9.463,0,6.651,6.651,0,0,0,1.8-4.815q0-4.012-.234-12t-0.234-12Q211.709,77.9,212.378,68.5Zm39.254-30.695q0.334-13.608.335-24.175,0-6.686-6.621-6.687-6.555,0-6.553,6.687,0,10.567-.335,24.175T238.124,61.98q0,8.092-.736,24.308T236.653,110.6q0,6.822,6.553,6.821,5.885,0,6.554-6.687,0.534-10.231.535-15.514l1-33.236Q251.3,51.414,251.632,37.805Zm38.485-10.2a7.668,7.668,0,0,0,0-10.967,7.587,7.587,0,0,0-5.517-2.274,7.7,7.7,0,0,0-5.55,2.274,7.593,7.593,0,0,0,0,10.967,7.693,7.693,0,0,0,5.55,2.274A7.582,7.582,0,0,0,290.117,27.607ZM288.278,68.5q0.669-9.395.669-15.682a6.669,6.669,0,0,0-1.839-4.882,6.871,6.871,0,0,0-9.429,0,6.665,6.665,0,0,0-1.839,4.882q0,6.287-.669,15.682T274.5,84.182q0,4.012.234,12t0.234,12A6.577,6.577,0,0,0,276.81,113a6.914,6.914,0,0,0,9.462,0,6.648,6.648,0,0,0,1.806-4.815q0-4.012-.234-12t-0.234-12Q287.61,77.9,288.278,68.5Zm78.509,48.717a5.764,5.764,0,0,0,1.872-4.414l-0.4-1.137q-1.069-2.34-1.538-3.544a100.479,100.479,0,0,1-4.213-11.77,54.557,54.557,0,0,1-1.137-13.107q0.066-9.094.435-14.913a48.653,48.653,0,0,1,1.037-8.359,4.527,4.527,0,0,0,1.337-3.21q0-5.282-9.095-9.028a34.355,34.355,0,0,0-13.04-3.009q-15.447,0-26.582,11.5a38.376,38.376,0,0,0-11.134,27.685q0,17.12,6.754,25.412,7.155,8.826,22.8,8.827a24.936,24.936,0,0,0,8.158-1.772,85.921,85.921,0,0,0,11.3-5.25,29.86,29.86,0,0,0,4.48,4.882q3.343,2.941,4.614,2.942A6.2,6.2,0,0,0,366.787,117.217Zm-16.116-18.19a40.188,40.188,0,0,1-6.754,5.083,23.3,23.3,0,0,1-10.9,2.34q-7.758,0-11.636-5.483T317.5,84.516a28.469,28.469,0,0,1,7.523-19.493q7.523-8.459,17.888-8.459a9.4,9.4,0,0,1,2.843.6A32.709,32.709,0,0,1,350,59.037q-0.736,3.812-1.1,7.189a57.837,57.837,0,0,0-.368,6.253,242.7,242.7,0,0,0,2.14,26.548h0Z"/>
</svg>
